<svg xmlns="http://www.w3.org/2000/svg" width="297.963" height="279.965" viewBox="0 0 298 280">
    <path fill="#ffd657" d="M181.7 1.01c6.14-2.04 6.27 3.55 6.3 7.99.07 11.23-1.07 10.36-2.68 20l-3.26 20c-.64 3.15-4.11 13.71-6.33 15.64-3.81 3.33-7.59 0-7.3-4.64l5.3-17 .55-10 2.54-14c.76-6.1.71-13.04 4.88-17.99ZM89.42 16.08c5.52-1.2 8.17 4.14 11.1 8.2 4 5.56 17.5 28.62 20.01 34.72 1.62 3.94.8 8.91-4.52 7.34-4.48-1.32-6.93-7.6-9.05-11.34L89.42 27c-2.46-3.9-3.59-7.32 0-10.92Zm57.72.8c9.28.08 7.98 16.59 7.86 23.12-.05 2.55-.01 6.43-3.13 7.26-3.65.96-5.37-3.57-6.11-6.26-1.03-3.78-2.67-18.45-1.16-21.77.82-1.82 1.19-1.51 2.54-2.35ZM231 50.75c6.98-1.31 9.36 2.66 4.77 8.24-2.65 3.22-18.38 16.84-21.77 18.02-4.57 1.6-8.32-2.98-4.56-7.91 1.46-1.9 5.72-4.91 7.84-6.78 4.5-3.96 8.36-8.81 13.72-11.57ZM63.21 59.78c5.98-.9 7.74 3.1 11.23 7.22l13.22 15c1.8 2.67 4.75 7.8 0 9.85-3.41 1.61-7.03-2.86-9.17-5.15-5.28-5.65-11.04-11.2-15.28-17.7-2.46-3.74-4.17-6.25 0-9.22ZM277 65.53c3.08-.5 8.63-1.4 9.69 2.68 1.71 6.58-8.33 7.97-12.69 9.81-13.76 5.82-20.44 10.06-33 17.58-3.16 1.89-12.73 7.81-15.98 7.78-3.5-.03-5.74-2.92-3.98-6.22 1.25-2.36 4.69-4.5 6.96-5.83 14.21-8.32 33.4-21.29 49-25.8ZM143 77.44c6.86-.56 7.97.98 14 2.19l7 1.21c23.75 7.37 49.26 32.4 50.91 58.16.57 8.94-2.22 14.22-5.76 22-8.88 19.52-26.31 35.92-48.15 38.72l-12 1.2c-15.52 0-34-8.21-44.99-18.96-4.78-4.68-7.29-8.44-10.87-13.96-4.56-7.04-9.02-15.42-9.14-24v-9c.21-15.63 16.98-37.29 29-46.3 8.74-6.54 19.39-9.49 30-11.26ZM3.23 92.78c5.61-.86 15.32 5.01 20.77 7.37l36 14.68 12.89 4.39c5.33 2.53 4.46 7.79.96 9.16-3.35 1.32-12.21-2.68-15.85-3.82L11 106c-4.92-2.11-16.39-7.21-7.77-13.22ZM276 122.68c9.75-1.78 8.87 6.58 4.77 9.15-3.7 2.33-16.14 3.68-20.77 4.37l-7 1.54c-4.26.22-7.17-2.84-5.32-6.21 1.43-2.61 4.72-3.32 7.32-4.08l21-4.77ZM66 152.65c8.92-1.3 9.48 5.89 3.94 9.21-4.43 2.67-12.83 3.48-17.94 4.33-5.16.87-4.93 2.14-15 3.38-3.11.38-10.71-.14-8.6-5.36 1.15-2.84 5.95-3.38 8.6-4.29l29-7.27Zm159.15 5.18c4.65-.68 18.74 3.63 23.85 5.29l39 10.39c3.08.78 10.41 2.99 9.26 7.36-.34 1.28-1.25 2.02-2.41 2.53-5.49 2.41-12.72-1.05-17.85-2.18l-19-5.48-8-1.71-18-5.54c-4.67-1.37-15.23-5.23-6.85-10.66ZM81 188.92c2.73-.71 6.02-1.32 7.16 2.23 1.75 5.46-6.64 9.58-10.16 12.06l-30 22.37c-2.72 2.1-10.89 8.7-13.95 8.88-3.15.19-4.86-2.61-4.13-5.47.83-3.25 4.58-6.16 7.08-8.19 8.21-6.67 35.76-27.63 44-31.88Zm142.31 6.11c5.53-1.91 7.52 1.39 11.7 4.6L249 210.09l7.98 5.44c2.36 1.9 7.49 7.39 2.73 9.73-3.46 1.7-7.81-.71-10.71-2.49-6.78-4.17-16.62-12.04-22.91-17.19-3.8-3.12-6.82-6.14-2.78-10.55Zm-119.98 3c3.67-1.25 7.2-.78 7.22 3.99.02 3.02-2.12 7.11-3.17 9.98l-9 25c-1.15 3.75-1.06 9.85-4.6 11.97-7.63 4.58-6.94-7.05-6.11-10.97 1.5-7.1 6.74-20.99 9.6-28 2.08-5.12 1.67-8.1 6.06-11.97Zm90.27 12c6.65-2.57 8.81 4.58 12.1 8.97l19.57 22.58c2.92 2.94 11.06 10.77 12.08 14.4 1.26 4.51-3.71 7.92-9.35 3.71-3.61-2.7-12.08-12.75-15.44-16.69l-15.08-18c-3.17-4.26-7.53-9.86-3.88-14.97Zm-59.57 4.3c5.92.14 6.58 4.71 5.36 9.67l-1.86 6-1.16 7-2.25 7-4.54 21c-1.55 4.79-1.24 13.27-5.67 13.95-1.38.21-2.51-.38-3.48-1.31-3.66-3.51-1.33-9.33-.71-13.64l2.9-13 1.06-8 4.69-16c1.55-5.7-.78-9.53 5.66-12.67Zm38.31 20.75c5.74-1.26 6.24 3.47 7.39 7.92 2.41 9.33 2.44 16.49 2.27 26-.06 3.22-.84 9.12-5.73 7.34-2.95-1.07-3.78-6.62-4.1-9.34l-1.46-19c-.7-5.43-3.01-8.66 1.63-12.92Z"/>
</svg>